<svg width="501" height="501" viewBox="0 0 501 501" fill="none" xmlns="http://www.w3.org/2000/svg">
<g filter="url(#filter0_dii_64_17)">
<rect x="32" y="28" width="437" height="437" rx="218.5" fill="url(#paint0_linear_64_17)"/>
</g>
<path d="M245.875 336C240.35 336 235.583 334.077 231.575 330.231C227.567 326.385 225.292 321.754 224.75 316.338C218.25 315.471 212.833 312.6 208.5 307.725C204.167 302.85 202 297.108 202 290.5C202 288.225 202.298 285.977 202.894 283.756C203.49 281.535 204.383 279.45 205.575 277.5C204.383 275.55 203.49 273.492 202.894 271.325C202.298 269.158 202 266.883 202 264.5C202 257.892 204.167 252.177 208.5 247.356C212.833 242.535 218.196 239.692 224.588 238.825C224.913 233.3 227.133 228.615 231.25 224.769C235.367 220.923 240.242 219 245.875 219C248.692 219 251.319 219.542 253.756 220.625C256.194 221.708 258.442 223.171 260.5 225.013C262.45 223.171 264.671 221.708 267.163 220.625C269.654 219.542 272.308 219 275.125 219C280.758 219 285.606 220.896 289.669 224.688C293.731 228.479 295.925 233.138 296.25 238.663C302.642 239.529 308.031 242.4 312.419 247.275C316.806 252.15 319 257.892 319 264.5C319 266.883 318.702 269.158 318.106 271.325C317.51 273.492 316.617 275.55 315.425 277.5C316.617 279.45 317.51 281.535 318.106 283.756C318.702 285.977 319 288.225 319 290.5C319 297.217 316.806 302.985 312.419 307.806C308.031 312.627 302.588 315.471 296.088 316.338C295.546 321.754 293.298 326.385 289.344 330.231C285.39 334.077 280.65 336 275.125 336C272.417 336 269.79 335.485 267.244 334.456C264.698 333.427 262.45 331.992 260.5 330.15C258.442 331.992 256.167 333.427 253.675 334.456C251.183 335.485 248.583 336 245.875 336ZM267 240.125V314.875C267 317.15 267.785 319.073 269.356 320.644C270.927 322.215 272.85 323 275.125 323C277.292 323 279.16 322.133 280.731 320.4C282.302 318.667 283.142 316.717 283.25 314.55C280.975 313.683 278.89 312.519 276.994 311.056C275.098 309.594 273.392 307.833 271.875 305.775C270.792 304.258 270.385 302.633 270.656 300.9C270.927 299.167 271.821 297.758 273.338 296.675C274.854 295.592 276.479 295.185 278.213 295.456C279.946 295.727 281.354 296.621 282.438 298.138C283.629 299.871 285.146 301.198 286.987 302.119C288.829 303.04 290.833 303.5 293 303.5C296.575 303.5 299.635 302.227 302.181 299.681C304.727 297.135 306 294.075 306 290.5C306 289.958 305.973 289.417 305.919 288.875C305.865 288.333 305.729 287.792 305.513 287.25C303.671 288.333 301.694 289.146 299.581 289.688C297.469 290.229 295.275 290.5 293 290.5C291.158 290.5 289.615 289.877 288.369 288.631C287.123 287.385 286.5 285.842 286.5 284C286.5 282.158 287.123 280.615 288.369 279.369C289.615 278.123 291.158 277.5 293 277.5C296.575 277.5 299.635 276.227 302.181 273.681C304.727 271.135 306 268.075 306 264.5C306 260.925 304.727 257.892 302.181 255.4C299.635 252.908 296.575 251.608 293 251.5C291.808 253.45 290.265 255.156 288.369 256.619C286.473 258.081 284.387 259.246 282.112 260.113C280.379 260.763 278.7 260.708 277.075 259.95C275.45 259.192 274.367 257.946 273.825 256.212C273.283 254.479 273.365 252.8 274.069 251.175C274.773 249.55 275.992 248.467 277.725 247.925C279.35 247.383 280.677 246.408 281.706 245C282.735 243.592 283.25 241.967 283.25 240.125C283.25 237.85 282.465 235.927 280.894 234.356C279.323 232.785 277.4 232 275.125 232C272.85 232 270.927 232.785 269.356 234.356C267.785 235.927 267 237.85 267 240.125ZM254 314.875V240.125C254 237.85 253.215 235.927 251.644 234.356C250.073 232.785 248.15 232 245.875 232C243.6 232 241.677 232.785 240.106 234.356C238.535 235.927 237.75 237.85 237.75 240.125C237.75 241.858 238.237 243.456 239.212 244.919C240.188 246.381 241.488 247.383 243.113 247.925C244.846 248.467 246.092 249.55 246.85 251.175C247.608 252.8 247.717 254.479 247.175 256.212C246.525 257.946 245.388 259.192 243.763 259.95C242.138 260.708 240.458 260.763 238.725 260.113C236.45 259.246 234.365 258.081 232.469 256.619C230.573 255.156 229.029 253.45 227.838 251.5C224.371 251.608 221.365 252.935 218.819 255.481C216.273 258.027 215 261.033 215 264.5C215 268.075 216.273 271.135 218.819 273.681C221.365 276.227 224.425 277.5 228 277.5C229.842 277.5 231.385 278.123 232.631 279.369C233.877 280.615 234.5 282.158 234.5 284C234.5 285.842 233.877 287.385 232.631 288.631C231.385 289.877 229.842 290.5 228 290.5C225.725 290.5 223.531 290.229 221.419 289.688C219.306 289.146 217.329 288.333 215.488 287.25C215.271 287.792 215.135 288.333 215.081 288.875C215.027 289.417 215 289.958 215 290.5C215 294.075 216.273 297.135 218.819 299.681C221.365 302.227 224.425 303.5 228 303.5C230.167 303.5 232.171 303.04 234.013 302.119C235.854 301.198 237.371 299.871 238.562 298.138C239.646 296.621 241.054 295.727 242.788 295.456C244.521 295.185 246.146 295.592 247.663 296.675C249.179 297.758 250.073 299.167 250.344 300.9C250.615 302.633 250.208 304.258 249.125 305.775C247.608 307.833 245.875 309.621 243.925 311.138C241.975 312.654 239.862 313.846 237.587 314.713C237.696 316.879 238.562 318.802 240.188 320.481C241.812 322.16 243.708 323 245.875 323C248.15 323 250.073 322.215 251.644 320.644C253.215 319.073 254 317.15 254 314.875Z" fill="#FEFEFE"/>
<g filter="url(#filter1_di_64_17)">
<path d="M187.5 369.565C180.763 369.565 174.995 367.145 170.197 362.306C165.399 357.466 163 351.648 163 344.852V147.148C163 140.352 165.399 134.534 170.197 129.694C174.995 124.855 180.763 122.435 187.5 122.435H285.5L359 196.574V344.852C359 351.648 356.601 357.466 351.803 362.306C347.005 367.145 341.238 369.565 334.5 369.565H187.5ZM273.25 208.93V147.148H187.5V344.852H334.5V208.93H273.25Z" fill="#FEFEFE"/>
</g>
<defs>
<filter id="filter0_dii_64_17" x="0.799999" y="0.799999" width="499.4" height="499.4" filterUnits="userSpaceOnUse" color-interpolation-filters="sRGB">
<feFlood flood-opacity="0" result="BackgroundImageFix"/>
<feColorMatrix in="SourceAlpha" type="matrix" values="0 0 0 0 0 0 0 0 0 0 0 0 0 0 0 0 0 0 127 0" result="hardAlpha"/>
<feMorphology radius="11" operator="dilate" in="SourceAlpha" result="effect1_dropShadow_64_17"/>
<feOffset dy="4"/>
<feGaussianBlur stdDeviation="10.1"/>
<feComposite in2="hardAlpha" operator="out"/>
<feColorMatrix type="matrix" values="0 0 0 0 0 0 0 0 0 0 0 0 0 0 0 0 0 0 0.25 0"/>
<feBlend mode="normal" in2="BackgroundImageFix" result="effect1_dropShadow_64_17"/>
<feBlend mode="normal" in="SourceGraphic" in2="effect1_dropShadow_64_17" result="shape"/>
<feColorMatrix in="SourceAlpha" type="matrix" values="0 0 0 0 0 0 0 0 0 0 0 0 0 0 0 0 0 0 127 0" result="hardAlpha"/>
<feOffset dx="4" dy="4"/>
<feGaussianBlur stdDeviation="19.85"/>
<feComposite in2="hardAlpha" operator="arithmetic" k2="-1" k3="1"/>
<feColorMatrix type="matrix" values="0 0 0 0 0 0 0 0 0 0 0 0 0 0 0 0 0 0 0.25 0"/>
<feBlend mode="normal" in2="shape" result="effect2_innerShadow_64_17"/>
<feColorMatrix in="SourceAlpha" type="matrix" values="0 0 0 0 0 0 0 0 0 0 0 0 0 0 0 0 0 0 127 0" result="hardAlpha"/>
<feMorphology radius="11" operator="erode" in="SourceAlpha" result="effect3_innerShadow_64_17"/>
<feOffset dy="4"/>
<feGaussianBlur stdDeviation="19.85"/>
<feComposite in2="hardAlpha" operator="arithmetic" k2="-1" k3="1"/>
<feColorMatrix type="matrix" values="0 0 0 0 0 0 0 0 0 0 0 0 0 0 0 0 0 0 0.25 0"/>
<feBlend mode="normal" in2="effect2_innerShadow_64_17" result="effect3_innerShadow_64_17"/>
</filter>
<filter id="filter1_di_64_17" x="84.6" y="44.0348" width="352.8" height="403.93" filterUnits="userSpaceOnUse" color-interpolation-filters="sRGB">
<feFlood flood-opacity="0" result="BackgroundImageFix"/>
<feColorMatrix in="SourceAlpha" type="matrix" values="0 0 0 0 0 0 0 0 0 0 0 0 0 0 0 0 0 0 127 0" result="hardAlpha"/>
<feOffset/>
<feGaussianBlur stdDeviation="39.2"/>
<feComposite in2="hardAlpha" operator="out"/>
<feColorMatrix type="matrix" values="0 0 0 0 0 0 0 0 0 0 0 0 0 0 0 0 0 0 0.25 0"/>
<feBlend mode="normal" in2="BackgroundImageFix" result="effect1_dropShadow_64_17"/>
<feBlend mode="normal" in="SourceGraphic" in2="effect1_dropShadow_64_17" result="shape"/>
<feColorMatrix in="SourceAlpha" type="matrix" values="0 0 0 0 0 0 0 0 0 0 0 0 0 0 0 0 0 0 127 0" result="hardAlpha"/>
<feOffset dx="4" dy="4"/>
<feGaussianBlur stdDeviation="26.5"/>
<feComposite in2="hardAlpha" operator="arithmetic" k2="-1" k3="1"/>
<feColorMatrix type="matrix" values="0 0 0 0 0 0 0 0 0 0 0 0 0 0 0 0 0 0 0.25 0"/>
<feBlend mode="normal" in2="shape" result="effect2_innerShadow_64_17"/>
</filter>
<linearGradient id="paint0_linear_64_17" x1="250.5" y1="28" x2="250.5" y2="465" gradientUnits="userSpaceOnUse">
<stop stop-color="#E53594"/>
<stop offset="0.5" stop-color="#421AB5"/>
<stop offset="1" stop-color="#A099F1"/>
</linearGradient>
</defs>
</svg>
